<svg xmlns="http://www.w3.org/2000/svg" xmlns:xlink="http://www.w3.org/1999/xlink" width="500" zoomAndPan="magnify" viewBox="0 0 375 374.999991" height="500" preserveAspectRatio="xMidYMid meet" version="1.0"><defs><clipPath id="ba427a6cc1"><path d="M 138 118 L 337 118 L 337 347.332031 L 138 347.332031 Z M 138 118 " clip-rule="nonzero"/></clipPath><clipPath id="020e193c14"><path d="M 38.054688 27.832031 L 236 27.832031 L 236 213 L 38.054688 213 Z M 38.054688 27.832031 " clip-rule="nonzero"/></clipPath></defs><g clip-path="url(#ba427a6cc1)"><path fill="#000000" d="M 239.898438 265.429688 C 268.777344 257.621094 292.179688 245.335938 310.082031 228.605469 C 327.964844 211.875 336.921875 190.222656 336.921875 163.632812 L 336.921875 118.367188 L 236.011719 118.558594 L 236.011719 167.390625 C 236.011719 181.464844 229.4375 192.71875 216.289062 201.164062 C 203.140625 209.601562 184.277344 213.824219 159.691406 213.824219 L 138.667969 213.824219 L 138.667969 279.375 L 199.851562 347.179688 L 316.28125 347.179688 L 239.898438 265.429688 " fill-opacity="1" fill-rule="nonzero"/></g><g clip-path="url(#020e193c14)"><path fill="#000000" d="M 235.058594 117.746094 L 235.058594 27.839844 L 38.101562 27.839844 L 38.101562 212.378906 L 137.714844 212.378906 L 137.714844 117.746094 L 235.058594 117.746094 " fill-opacity="1" fill-rule="nonzero"/></g></svg>